<svg xmlns="http://www.w3.org/2000/svg" width="2666.667" height="2000" version="1.0" viewBox="0 0 2000 1500"><path d="M0 750v750h2000V0H0zm1454.3-90.5c8.7 2.3 15.3 6 22 12.6l6.2 5.9 4.4-4.6c12.2-12.5 26.8-17.3 44-14.4 20.7 3.5 36.7 19.1 41.7 40.8 2.3 9.7 2 25.9-.5 36.6-1.2 4.8-2.1 8.9-2.1 9.2 0 .2 6.7.4 14.8.4h14.8l11.4-28.6c11.5-28.8 13-31.4 17.7-31.4 4.9 0 6.9 3.6 21.3 40 7.8 19.5 14.5 35.9 14.9 36.3s2-2.4 3.5-6.3c1.5-3.8 3.7-7.7 4.9-8.5 1.8-1.2 6.3-1.5 24.9-1.5 14.7 0 23.6.4 25.2 1.1 3.2 1.5 5 5.7 3.7 9-1.9 5.1-3 5.4-24.5 5.7l-20.1.3-5.3 13.4c-2.9 7.3-6.2 14.1-7.3 15.1-2.5 2.3-7.5 2.2-9.9-.2-1.5-1.5-15.1-34.6-30.2-73.4-.9-2.2-2 .1-9.7 19.5-8.2 20.4-9.1 22.1-12.2 23.7-2.9 1.6-6.4 1.8-25.1 1.8-12.5 0-21.8.4-21.8.9 0 1.7-12 17.2-21.1 27.2-15.7 17.2-52.6 48.9-57.1 48.9-2.5 0-5.3-1.5-10.8-5.9-28.8-22.9-53.8-47.9-66-66-5.4-8.1-11.3-20.8-13.4-29.1-2.4-9-3.1-25.1-1.7-33.6 3.4-19.4 14.4-34.8 29.6-41.5 10.5-4.6 23.9-6 33.8-3.4M358 728.1l28.5 57.1 28.2-57.1 28.2-57.1H494v16.9l-13.2.3-13.3.3-.3 53.7-.2 53.7 13.2.3 13.3.3.3 8.7.3 8.8H421v-18h24.9l.4-43.8c.3-24 .8-45.3 1.2-47.2s-12.2 22.3-27.9 53.8l-28.5 57.3-5.3-.3-5.3-.3-28.3-56.5c-15.5-31.1-27.9-55.4-27.6-54 .4 1.4.9 22.4 1.1 46.7l.5 44.2 12.1.3 12.2.3.3 8.7.3 8.8H279v-18h27l-.2-53.8-.3-53.7-13.2-.3-13.3-.3V671h50.5zm272-48.6v8.4l-10.4.3-10.5.3 23.2 53.7 23.2 53.8H678v18h-68v-17.9l11.3-.3 11.3-.3-6.5-16.3-6.4-16.2h-61.3l-6.6 16.5-6.6 16.5H570v18h-68.1l.3-8.8.3-8.7 11.1-.3 11.1-.3 23-53.7 23-53.7-10.4-.3-10.3-.3V671h80zm204 15V718h-20v-30h-43v108h27v18h-76.1l.3-8.8.3-8.7 13.3-.3 13.2-.3V688l-21.2.2-21.3.3-.3 14.7-.3 14.8H687v-47h147zm157-.5v23h-20v-29l-36.7.2-36.8.3-.3 22.7-.2 22.8h33v-19h17v55h-17v-20l-16.2.2-16.3.3-.3 22.7-.2 22.8h74v-28h20v46H848.9l.3-8.8.3-8.7 13.3-.3 13.2-.3V688h-27v-17h142zm102.5 14.2c17.6 20.5 38 44.1 45.3 52.6l13.2 15.3V688h-27v-17h74v16.9l-13.2.3-13.3.3-.3 63.2-.2 63.3h-10.6l-48.7-55.4c-26.8-30.5-49.4-55.9-50.2-56.6-1.3-1.1-1.5 4.4-1.5 45.9V796h26v18h-73v-18h27V688h-27v-17h47.6zm205.8-35.7c39.2 6.8 62.7 32.9 62.7 69.4 0 13.8-2 22.7-7.2 33.1-8.7 17.2-25.4 29.8-47.6 35.8-9.6 2.6-10 2.6-53.4 3l-43.8.3V796h27l-.2-53.8-.3-53.7-13.2-.3-13.3-.3V671h40.4c31.3 0 42.3.3 48.9 1.5"/><path d="M1516.5 674.1c-9.7 1.2-19.2 8.3-25 18.5-4.1 7.2-5.4 8.4-9 8.4-3.9 0-5.5-1.3-9-7.5-4-7-10.5-13.7-16.2-16.5-6.9-3.5-19.6-4-27.4-1.1-16.1 6.1-24.1 19.5-24.2 40.6-.1 24.5 10 43.1 38.9 71.7 12.7 12.6 34.1 31.3 37.2 32.5 1.8.7 22.5-17 38.8-33.2 27.3-27.3 36.6-43.8 38-67.5 1.5-25.2-10.6-43.1-31.1-45.8-3.3-.4-8.3-.5-11-.1M576.9 716.2c-6.1 15.6-11.4 29.1-11.7 30-.4 1.7 1.2 1.8 23.7 1.8 14.8 0 24.1-.4 24.1-1 0-1.9-23-58.5-23.9-58.8-.5-.2-6 12.4-12.2 28M1259 742v54.2l18.3-.4c15.4-.4 19.3-.9 25.2-2.8 10.4-3.3 16.2-6.6 22.5-12.6 10.2-9.7 14.3-20.5 14.4-37.4.1-23.5-8-37.8-26.5-46.9-10.9-5.4-18.9-7-38.1-7.8l-15.8-.6z"/></svg>