<svg xmlns="http://www.w3.org/2000/svg" width="5333.333" height="4000" version="1.0" viewBox="0 0 4000 3000"><path d="M2725.2 806.6c-26 4.4-47.3 16.8-61.5 35.9-10.1 13.6-15.6 26.3-19.8 45.8-1.9 8.6-2.2 13.2-2.2 29.2 0 16.5.4 20.6 2.6 31 8.1 38.1 23.3 64.6 60.3 105.5 23 25.4 58 57.4 92.6 84.7 12.5 9.8 15.1 11.3 19.6 11.3 4.8 0 7.8-1.8 25.1-15.7 23.8-19.3 44.6-37.8 66-58.7 26-25.7 44.1-46.8 57-66.9l4.3-6.7h8.2c36.8 0 77.5-.9 79.8-1.8 1.4-.6 3.7-2.6 5-4.4 2.1-2.7 13.7-30.9 30.7-74.3 1.5-3.8 3.4-7.1 4.2-7.3 1.1-.2 6.1 11.2 19.3 44.5 9.8 24.6 18.5 46.4 19.3 48.3s1.9 4.5 2.4 5.7c.5 1.3 1.3 3.3 1.8 4.5.5 1.3 4.2 10.5 8.1 20.6 6.7 17 7.6 18.5 11.1 20.9 3.3 2.2 4.7 2.5 9.1 2.1 8.2-.8 9.8-3.2 21.7-33l10.2-25.6 37.7-.4c41.9-.4 41.9-.4 46.1-7.1 3.9-6.3 1.8-14.8-4.4-18.7-3.1-1.9-4.9-2-48.2-2h-45l-3.4 2.3c-3.5 2.3-7 9.2-12.3 24-1.2 3.4-2.8 6.2-3.5 6.2-1 0-42.2-100.9-48.8-119.5-1.5-4.3-2.9-7.6-7.9-18.8-2.9-6.3-7-9.2-13.2-9.2-5.1 0-9.3 2.2-11.5 5.9-.8 1.4-10.8 26-22.2 54.6s-21.4 52.6-22.3 53.2c-1.2 1-8.6 1.3-28.9 1.3-23.9 0-27.4-.2-28-1.6-.3-.8.4-4.8 1.5-8.7 4.9-17 6.5-28.4 6.5-46.7 0-16.2-.5-21.9-3.4-34-5.5-22.6-18-43.5-33.7-56.1-8.1-6.6-24.4-14.9-33.7-17.4-8.6-2.3-23-4.5-30-4.5-17.6 0-37.6 6.6-52 17.2-5.8 4.3-18 16.2-19.7 19.3-.5.8-1.5 1.5-2.1 1.5-.7 0-6.2-4.8-12.3-10.8-8-7.8-13.2-12-19.4-15.5-18.4-10.3-39.1-13.8-60.8-10.1m27 27.5c13.5 2.8 22.2 7.3 32.2 16.8 7.7 7.4 13.9 15.8 18.4 24.6 3.6 7.2 5.4 8.9 10.8 10.5 3.6 1.1 4.7 1 8.6-.7 3.9-1.8 5-3.1 9.7-11.4 10.1-17.8 20.1-28.1 33.6-34.5 11.9-5.7 24.6-7.5 37.1-5.4 17.1 2.9 28.2 8.4 39.7 19.7 26.8 26.3 29.9 80.1 7.2 125.3-16.6 33.1-55.9 75.6-117.3 126.7-7.5 6.2-14.3 11.3-15.1 11.3-4.9-.1-65.9-54.1-87.5-77.5-37.8-41-51.3-64.3-58.7-101-1.7-8-1.6-35.4 0-43 5.7-26.3 17.1-43.3 36.1-53.7 12.8-7 32.4-10.3 45.2-7.7M682.4 834.3c-.2.7-.3 7.4-.2 14.8l.3 13.4 22.9.2c17.8.1 23.1.4 23.7 1.5.5.7.9 43.7.9 95.4 0 86.4-.1 94.3-1.7 95.5-1.2 1.1-6.6 1.4-23.2 1.6-11.9.1-21.9.2-22.3.2-.5.1-.8 6.4-.8 14.1v14h126v-29l-21.7-.2-21.8-.3-.6-73.5c-.3-48.6-1-76.5-1.7-82.4-2.2-15.9-1.2-14.5 17.7 23.7 8.7 17.7 30.8 62.3 49 99l33.2 66.8 9.1-.3 9.1-.3 7.3-14.5c4-8 22.4-45.1 40.9-82.5 47.8-96.8 50.8-102.9 52.4-103.3 1.1-.4 1.3.5.7 4.9-2.1 16.4-2.5 30.5-2.6 92.4 0 37.4-.4 68.6-.8 69.2-.6.9-6.6 1.3-22.2 1.5l-21.5.3-.3 14.2-.3 14.3h128.2l-.3-14.3-.3-14.2h-22.2c-14.9 0-22.6-.4-23.3-1.1-1.3-1.3-1.5-190.3-.2-191.6.4-.4 10.9-.9 23.2-1l22.5-.3v-29h-44.4c-38.4 0-44.5.2-45.3 1.5-.4.8-11.5 23.1-24.4 49.5-13 26.4-30.4 61.7-38.6 78.5-8.3 16.8-19.5 39.6-24.9 50.8-6.9 14.1-10.4 20.2-11.4 20-.8-.2-23.8-44.9-51.1-99.3-27.3-54.5-50.1-99.6-50.6-100.3-1.6-1.8-87.6-1.8-88.4.1M1162.4 834.3c-.2.7-.3 7.1-.2 14.3l.3 12.9 17.8.3c14.3.2 17.9.5 18.3 1.7.3.8-1.5 6.3-4.1 12.2s-7.9 18.2-11.7 27.3-7.6 17.8-8.4 19.5c-.7 1.6-13.5 31.6-28.4 66.5-14.8 34.9-27.4 64.2-27.9 65-.7 1.2-4.4 1.6-20.2 2.1-10.7.3-19.5.6-19.6.7-.2.1-.3 6.5-.3 14.1v14l55.2.3c30.3.2 57.1.1 59.5-.1l4.4-.3-.3-14.2-.3-14.1-21-.3c-11.5-.1-21.3-.6-21.8-1.1-1.1-1.1 22.1-59.1 23.7-59.2h54.5c42 0 53.7.3 54.7 1.3.6.7 4.2 9.2 7.9 18.8s8.5 21.7 10.6 26.9c2.2 5.1 3.9 10.2 3.9 11.2 0 1.7-1.2 1.9-19.7 2.1l-19.8.3-.3 14.2-.3 14.1 7.3.4c4 .2 30.9.1 59.8-.2l52.5-.5v-28l-18.9-.2c-14.1-.1-19.2-.5-20.2-1.5-.7-.7-4.3-8.3-7.9-16.8-3.7-8.5-7.3-16.9-8-18.5-.8-1.7-3.6-8.2-6.3-14.5s-12.3-28.4-21.2-49-18.8-43.6-22-51-8.3-19.3-11.4-26.3c-3.2-7-5.6-13.6-5.4-14.5.3-1.5 2.3-1.7 18-2l17.7-.2.6-3.3c.3-1.7.5-8.2.3-14.2l-.3-11-70.3-.3c-57.2-.2-70.4 0-70.8 1.1m70.8 29.4c.8 1 9.9 23.2 20.2 49.3 10.4 26.1 19.5 48.8 20.2 50.4 2.1 4.3 1.8 5.6-1.3 5.6-18.7.1-82.1.2-83 .1-.7 0-1.3-.7-1.3-1.5 0-1.5 38.1-98 40.6-102.8 1.7-3.3 2.5-3.5 4.6-1.1M1406.5 834.3c-.3.6-.4 19-.3 40.7l.3 39.5h31.6l-.1-24.6c0-21.4.2-24.9 1.5-26.3 1.5-1.4 6-1.6 38.5-1.6 35.5 0 37 .1 38 1.9 1.3 2.6 1.4 188.9 0 191.1-.8 1.2-5 1.6-24.2 2l-23.2.5v13.5l-.1 13.5 66.8.3 66.8.2-.3-14.2-.3-14.3-22.5.3c-12.4.2-23.1-.1-23.8-.6-1.9-1.3-1.8-192.2.1-193.4.7-.4 17.7-.8 37.9-.8 35.3 0 36.8.1 37.8 1.9.6 1.2 1 11.5 1 26.5V915h32v-82h-128.5c-102 0-128.7.3-129 1.3M1693.7 833.7c-.4.3-.7 6.8-.7 14.4 0 10.1.3 13.9 1.3 14.2.6.3 10.7.2 22.2-.1 19-.4 21.2-.3 22.8 1.2 1.6 1.6 1.7 8.1 1.7 95.9 0 57.5-.4 94.8-1 95.7-.8 1.2-4.8 1.6-24 1.8l-23.1.3.3 13.7.3 13.7h249v-79h-32l-.5 25-.5 24.9-4 .7c-2.2.3-31.6.6-65.3.5-53.3-.1-61.4-.3-62.2-1.6-1.2-1.8-1.3-78.9-.2-80.8.7-.9 7.3-1.2 29.8-1l28.9.3.3 16.7.2 16.8h28v-95h-28v15.8c0 11-.4 16.2-1.2 17-.9.9-8.7 1.2-28.8 1.2s-27.9-.3-28.8-1.2c-1.5-1.5-1.7-78.4-.2-80.8.8-1.3 9-1.5 65.5-1.3 35.5.1 65 .5 65.5.8.6.4 1 10.4 1 25 0 21.2.2 24.4 1.6 24.9.9.3 8 .6 16 .6 14.1 0 14.4 0 14.9-2.3.3-1.2.4-19.3.3-40.2l-.3-38-124.1-.3c-68.2-.1-124.4.1-124.7.5M1985.4 834.5c-.4.8-.2 7.5.2 14.8l.9 13.2 22.8.3c17 .2 22.9.6 23.2 1.5.2.6.6 43.4.9 94.9.3 76.8.2 94-.9 95.5-1.2 1.6-3.3 1.8-23.6 1.8-26.4.1-24.2-1.4-23.2 16.6l.6 11.9H2113l.5-2.3c.3-1.2.4-7.6.3-14.2l-.3-12H2092c-11.8 0-22.1-.4-22.7-.8-1.8-1.2-1.9-167.2-.1-168.3.7-.5 2.5.9 4.7 3.6 3.5 4.3 69.1 79.1 104 118.5 9.7 11 27.3 31 39.1 44.5s23.5 26.6 25.9 29.2l4.4 4.8h17.700000000000003l.2-112.3.3-112.2 22.5-.5 22.5-.5.3-14.8.3-14.7-63.8.2-63.8.3v29l22.2.1c12.2.1 22.9.4 23.8.7 1.3.6 1.5 9.2 1.5 77.6 0 57.4-.3 77.2-1.2 77.7-.6.4-2.2-.5-3.7-2.2-1.4-1.6-7.8-9-14.1-16.4-6.3-7.3-16-18.6-21.5-24.9-5.5-6.4-12.7-14.8-16-18.7s-14.1-16.4-24-27.9c-9.9-11.4-20.7-24-24-27.9-14.9-17.7-56-65.2-57.3-66.4-1.2-.9-11.2-1.2-42.4-1.2-35.6 0-40.9.2-41.4 1.5M2333.7 833.7c-.4.3-.7 6.9-.7 14.5 0 10.3.3 13.8 1.3 14 .6.1 11 .2 23 .2 18.2.1 21.9.3 22.7 1.6.6.9 1 38.1 1 96.2 0 74.6-.3 94.8-1.2 95.5-.7.4-11.4.7-23.8.8h-22.5l-.3 14.3c-.2 11 0 14.2 1 14.2h71c57.3 0 71.5-.3 80-1.6 20.2-3 34.4-7.2 50.2-15 38.5-19.2 62-53.7 65.7-96.4 3.1-36.3-6.7-69.3-27.6-93-22.5-25.6-59.4-41.9-101.4-45-14.4-1.1-137.4-1.3-138.4-.3m142.2 30.8c28 4.1 52.9 16 65.9 31.4 8.8 10.4 15.4 23.6 18.7 37.1 2.3 9.2 3.1 31.9 1.5 43.3-6.3 46.1-41.7 75.2-96.5 79.2-12.3.9-46.3 1.1-47.1.2-.8-.8-1.7-188.3-.8-190.9.5-1.7 2.3-1.8 24.1-1.8 15.9 0 27 .5 34.2 1.5"/></svg>