<svg xmlns="http://www.w3.org/2000/svg" width="2666.667" height="432" version="1.0" viewBox="0 0 2000 324"><path d="M1580.5 41.1c-23.5 3.6-41.1 16.1-50.9 35.9-7 14.4-8.9 22.6-9 40.5-.1 21.9 3.3 35.7 13.6 55.7 13.8 26.6 50.3 65.1 94.1 99.2 14 10.8 15.2 10.9 26.8 1.9 37.3-28.7 73.9-65.3 89.8-89.7l4.3-6.6h29.2c25.7 0 29.5-.2 32.6-1.8 3.3-1.6 4-3.1 14.6-29.6 6.1-15.4 11.6-28.7 12.1-29.5.7-1.1 6.2 11.7 20.7 48 14.1 35.3 20.4 50 22.2 51.7 3.4 3 9.7 3 12.7-.1 1.3-1.2 5.6-10.4 9.6-20.4l7.3-18.2 27-.3 27-.3 2.9-3.3c1.6-1.8 2.9-4.4 2.9-5.8 0-3.3-2.5-8.1-4.9-9.4-1.2-.6-13.8-1-33.6-1-26.9 0-31.9.2-34 1.6-1.5 1-3.7 4.8-6 10.7-2 5.1-4 9.5-4.4 9.9-.3.4-9.4-21.2-20-48-12.6-31.7-20.2-49.7-21.9-51.5-3.1-3.3-9.7-3.8-13.1-1-1.3 1.1-7.8 16-17.4 39.8l-15.2 38-20.4.3c-18.3.2-20.3.1-19.7-1.4 4-10.5 7.1-32.5 6.2-44.4-3.4-43.9-30.2-71.2-70.1-71.3-18.3 0-31.6 5.5-44.7 18.5l-7.8 7.7-7.3-7.3c-14.9-14.9-35-21.7-55.2-18.5m22 21.1c10.3 2.5 22.9 13.5 29.2 25.4 4.2 8 6.5 9.9 11.4 9.8 4.9-.2 7.1-2.1 11.2-9.8 1.8-3.4 6.1-9.1 9.6-12.8 11.2-11.9 24-16.2 40-13.4 10.8 1.9 18 5.4 25 12.1 11.3 10.8 16.5 25.1 16.4 45.5-.2 32.8-14.7 58.8-54 97.1-12.5 12.2-26.5 24.6-41 36.2l-7.2 5.9-5.8-4.5c-18.7-14.5-49.8-43.5-63.3-59.2-20.9-24.3-30-42.4-33-65.4-4-31 9.1-57.8 32.1-65.6 9.3-3.2 19.9-3.7 29.4-1.3M39 68.5V80h35v145H39v23h95v-23h-32.8l-.6-58.3c-.2-32-.7-60.2-1-62.7-.4-3.5 8 12.7 36.9 70.7l37.4 75.3h14.6l37.5-75.9c20.6-41.8 37.6-75.4 37.8-74.7s-.2 4.9-.8 9.2c-.7 4.7-1.4 29.8-1.7 62.1l-.5 54.3H228v23h97v-23h-35V80h35V57h-67.5l-37.4 76c-20.6 41.8-37.7 75.8-38 75.5-.3-.2-17.7-34.4-38.6-75.9l-38-75.6H39zM400 68.5v11.4l13.9.3 14 .3-30.8 72-30.8 72-15.1.3-15.2.3V248h91v-23l-16.9-.2-16.9-.3 8.8-22 8.8-22h82.6l8.8 22 8.7 22-15.5.3-15.4.3V248h91v-22.9l-15.1-.3-15.1-.3-30.9-71.4c-17-39.3-30.9-71.9-30.9-72.3s6.3-.8 14-.8h14V57H400zm69 50.6c8.5 21.5 15.7 39.5 15.8 40 .2.5-12.7.9-32.8.9-18.5 0-33-.4-32.8-.9C433.1 122.7 450.8 80 452 80c1 0 6.2 11.7 17 39.1M583 88.5V120h25V80h58v145h-36v23h101v-23h-36V80h58v40h25V57H583zM799 68.5V80l17.8.2 17.7.3v144l-17.7.3-17.8.2v23h188v-61h-25v38h-99v-62h44v26h22v-73h-22v26h-44V80h99v38h25V57H799zM1019 68.5V80l17.8.2 17.7.3v144l-17.7.3-17.8.2v23h97v-23h-34v-63.7c0-53.8.2-63.5 1.4-62.3.7.8 30.9 35.2 67.1 76.3l65.7 74.8 6.7-.3 6.6-.3.3-84.8.2-84.7h35V57h-98v23h36v59.2c0 56.4-.1 59.2-1.8 57.1-.9-1.2-28.2-33-60.7-70.7l-59-68.6H1019zM1280 68.5V80h36v145h-36v23h50.3c27.6 0 54.3-.5 59.2-1 39.9-4.5 69.3-22.9 84.2-52.5 7.4-14.7 10.5-34.3 8.4-53.4-1.4-12.9-3.8-21.6-9.2-32.2-14.2-28.4-44.8-46.8-84.3-50.8-6.3-.6-31.6-1.1-59.8-1.1H1280zm104.5 12.6c30.5 3.7 51.5 16.4 61.3 36.9 5.7 12.1 6.7 17.2 6.7 34.5s-1 22.4-6.7 34.4c-9.8 20.5-31.6 33.7-61.4 37.1-5.4.6-16.6 1-24.9.8l-15-.3-.3-71c-.1-39.1 0-71.6.3-72.3.6-1.6 27.2-1.7 40-.1"/></svg>