<svg xmlns="http://www.w3.org/2000/svg" width="5162.667" height="2133.333" version="1.0" viewBox="0 0 3872 1600"><path d="M1586.2 163.7c-2.7 1.1.2 2.3 5.6 2.3 5.2-.1 5.5-.2 3.8-1.5-1.9-1.5-6.8-1.9-9.4-.8M1540 165c-1 .6 3.7.9 14 .8 14.3-.1 14.8-.2 7-.9-12.2-1-19.3-1-21 .1M263 205.5c0 1.9.9 1.9 3.4 0 1.9-1.4 1.9-1.5-.7-1.5-1.7 0-2.7.5-2.7 1.5M2080.5 205c.3.5 1 1 1.6 1 .5 0 .9-.5.9-1 0-.6-.7-1-1.6-1-.8 0-1.2.4-.9 1M3218 531c0 .5.5 1 1 1 .6 0 1-.5 1-1 0-.6-.4-1-1-1-.5 0-1 .4-1 1M1018 575c0 1.3.5 2 1.3 1.7.6-.2 1.2-1 1.2-1.7s-.6-1.5-1.2-1.8c-.8-.2-1.3.5-1.3 1.8M531 594.9c0 6.5 1.3 12.2 2.6 11.7.7-.3 1.8.3 2.4 1.2 1 1.5 1.1 1.5.5-.3-.4-1.1-1.4-5-2.3-8.7-1.8-7.1-3.2-8.8-3.2-3.9M896.8 592.5c-.3.6-1.3 3.9-2.2 7.5s-1.9 7.4-2.3 8.5c-.3 1.1-.2 1.7.2 1.3.5-.4 1.4-.3 2 .2 1 .8 1.6-.9 2.5-7.3 1.2-7.9 1.1-12.3-.2-10.2M1787.5 601.3c-.4 1-.5 2.1-.1 2.4 1 1 1.8-.4 1.3-2.4-.4-1.7-.4-1.7-1.2 0M2283 633c1.9 1.7 4.9 4 6.5 5.2l3 2.1-3-3.2c-1.6-1.7-4.5-4.1-6.5-5.2l-3.5-2zM2384.8 632.4c-2.4 1.8-2.2 4.2.7 9.6l2.4 4.5.1-7.8c0-4.2-.3-7.7-.7-7.7-.5 0-1.6.7-2.5 1.4M2557.4 641.6c-1.1 6.1-.7 6.7 1.8 2.4 1.4-2.5 1.5-3.4.4-5.4-1.1-2.3-1.3-2.1-2.2 3M1419.1 645.2c1.3 1.8 2.5 2.6 2.7 1.9.4-1.3-2.5-5.1-4-5.1-.5 0 .1 1.4 1.3 3.2M3217 645.2c0 .8.7 2.3 1.5 3.4 1.5 1.8 1.5 1.8 1.3-1-.3-2.9-2.8-5-2.8-2.4M2154.5 689l-2 .9h2c1.1 0 2.9-.4 4-.9l2-.9h-2c-1.1 0-2.9.4-4 .9M1670.6 689.9c-.4.5-.2 1.2.3 1.5.5.4 1.2.2 1.5-.3.4-.5.2-1.2-.3-1.5-.5-.4-1.2-.2-1.5.3M1786 691.4c0 .7.6 1.9 1.4 2.5 1.1.9 1.5.8 2-.5.3-.9.4-2 0-2.5-.8-1.4-3.4-1.1-3.4.5M2133 693c-7.3 2.4-5.2 2.5 3 .1 3.6-1.1 5.6-2 4.5-2s-4.5.8-7.5 1.9M3818.6 702.1c2.5 5 4.7 8.9 4.9 8.7 1-1-1.9-9.5-4.6-13.4-5-7.3-5.1-5-.3 4.7M2123 696.3c-1.4.6-4.8 2.1-7.7 3.4-2.8 1.3-5.4 2.7-5.8 3.2-.5.8 1.6 0 14.5-6.1 1.9-.9 3.1-1.7 2.5-1.7-.5 0-2.1.5-3.5 1.2M2104.9 706.1l-2.4 2 2.8-1.7c1.5-.9 2.7-1.8 2.7-2 0-.8-.8-.4-3.1 1.7M3842.2 779c0 1.4.2 1.9.5 1.2.2-.6.2-1.8 0-2.5-.3-.6-.5-.1-.5 1.3M2061.1 783.9c-.9 1.6-.8 1.8.8 1.4 1.2-.3 1.7-1.1 1.4-1.9-.7-1.8-1-1.8-2.2.5M713 803.7c0 1 .3 2.9.7 4.1.4 1.8.8 2 1.4 1 1.5-2.2 1.1-6.8-.6-6.8-.8 0-1.5.8-1.5 1.7M3842.3 858c0 2.5.2 3.5.4 2.2.2-1.2.2-3.2 0-4.5-.2-1.2-.4-.2-.4 2.3M2065 857.2c0 .7.5 2 1 2.8.8 1.3 1 1.2 1-.3 0-.9 0-2 .1-2.4 0-.4-.4-.9-1-1.1s-1.1.2-1.1 1M3841.2 866c0 1.4.2 1.9.5 1.2.2-.6.2-1.8 0-2.5-.3-.6-.5-.1-.5 1.3M398.6 893.5c-.3.9 0 2.6.6 3.8 1.3 2.2 1.3 2.1 1.6-.7.4-3.3-1.2-5.6-2.2-3.1M407.8 893.4c-2.4 1.7-2.2 7.1.2 11.6l1.9 3.5.1-8.3c0-4.5-.1-8.2-.2-8.2-.2 0-1.1.7-2 1.4M532.6 930.9c-.4.7-.5 1.5-.2 1.8.9.9 1.9-.4 1.4-1.8-.4-1.1-.6-1.1-1.2 0M895.5 931c-.3.5-.1 1 .4 1 .6 0 1.1-.5 1.1-1 0-.6-.2-1-.4-1-.3 0-.8.4-1.1 1M1018 931c0 .5.5 1 1.1 1 .5 0 .7-.5.4-1-.3-.6-.8-1-1.1-1-.2 0-.4.4-.4 1M408 932.4c0 .2.7.9 1.5 1.6 1.3 1.1 1.4 1 .9-.4s-2.4-2.3-2.4-1.2M2559 945.6c0 .8.5 1.2 1 .9.6-.4.8-1.1.5-1.6-.9-1.4-1.5-1.1-1.5.7M2831.6 945.5c-.3.8-.1 1.5.4 1.5.6 0 1-.7 1-1.5s-.2-1.5-.4-1.5-.6.7-1 1.5M3336 945c0 .5.5 1 1.1 1 .5 0 .7-.5.4-1-.3-.6-.8-1-1.1-1-.2 0-.4.4-.4 1M2886.4 978.5c0 8.8.2 12.3.3 7.7.2-4.6.2-11.8 0-16-.1-4.2-.3-.5-.3 8.3M262.9 980.5c-.1 3.8-.3 8.8-.4 11 0 2.2.2 5.1.5 6.5.5 2 .9 1.2 2-3.8.8-4.1 1.8-6.2 2.7-6.2 1.7 0 1.2-1.8-2.3-9.4l-2.4-5.1zM3217 991.1c-1.1 2.6-1.1 3.2.1 3.9 1.7 1.1 1.9.9 2.9-3.4 1-4.6-1.2-5-3-.5M263.1 1074.4c0 15.4.2 27.7.5 27.3 1.1-1 1.5-37.6.5-46.7-.7-6.8-.9-2.8-1 19.4M263.6 1280.9c-.4.5-.2 1.2.3 1.5.5.4 1.2.2 1.5-.3.4-.5.2-1.2-.3-1.5-.5-.4-1.2-.2-1.5.3"/></svg>