<svg xmlns="http://www.w3.org/2000/svg" width="2666.667" height="432" version="1.0" viewBox="0 0 2000 324"><path d="M1580.5 41.1c-23.5 3.6-41.1 16.1-50.9 35.9-7 14.4-8.9 22.6-9 40.5-.2 34.8 11 59.8 42.7 95.4 16.9 19 60.3 57.8 73.8 66 6.6 4 8.6 3.2 25.5-10.5 35.4-28.5 65.9-59.4 81.2-82.2l5.5-8.2h29.6c27.1 0 29.9-.2 32.6-1.9 2.7-1.6 4.5-5.3 14.5-30.5 6.3-15.8 11.7-28.9 12.1-29.2.4-.2 9.5 21.8 20.3 48.9 14.1 35.1 20.4 49.8 22.2 51.5 3.4 3 9.7 3 12.7-.1 1.3-1.2 5.6-10.4 9.6-20.4l7.3-18.2 27-.3 27-.3 2.9-3.3c1.6-1.8 2.9-4.4 2.9-5.8 0-3.3-2.5-8.1-4.9-9.4-1.2-.6-13.8-1-33.6-1-26.9 0-31.9.2-34 1.6-1.5 1-3.7 4.8-6 10.7-2 5.1-4 9.5-4.4 9.9-.3.4-9.4-21.2-20-48-12.6-31.6-20.3-49.7-21.9-51.5-3.1-3.3-9.7-3.8-13.1-1-1.3 1.1-7.8 16-17.4 39.8l-15.2 38-20.4.3c-18.3.2-20.3.1-19.7-1.4 4-10.5 7.1-32.5 6.2-44.4-3.4-43.9-30.2-71.2-70.1-71.3-18.3 0-31.6 5.5-44.7 18.5l-7.8 7.7-7.3-7.3c-14.9-14.9-35-21.7-55.2-18.5m22 21.1c10.3 2.5 22.9 13.5 29.2 25.4 4.2 7.8 6.5 9.9 11.3 9.9s7.1-2.1 11.3-9.9c1.8-3.4 6.1-9.1 9.6-12.8 11.2-11.9 24-16.2 40-13.4 10.8 1.9 18 5.4 25 12.1 11.3 10.8 16.3 24.8 16.3 45.5 0 30.4-12 54-45 88.2-11.5 12-31.9 30.5-47.5 43.2l-9.7 7.8-4.2-3.3c-10-7.7-32.2-27.2-43.7-38.4-35.7-34.7-50.4-58.4-54.1-87.4-4-31 9.1-57.8 32.1-65.6 9.3-3.2 19.9-3.7 29.4-1.3M39 68.5V80h35v145H39v23h95v-23h-32.8l-.6-58.3c-.2-32-.7-60.2-1-62.7-.4-3.5 8 12.7 36.9 70.7l37.4 75.3h14.6l37.5-75.9c20.6-41.8 37.6-75.4 37.8-74.7s-.2 4.9-.8 9.2c-.7 4.7-1.4 29.8-1.7 62.1l-.5 54.3H228v23h97v-23h-35V80h35V57h-67.5l-37.4 76c-20.6 41.9-37.8 75.7-38.1 75.3-.4-.4-17.8-34.7-38.6-76L105.5 57H39zM400 68.5v11.4l13.9.3 14 .3-30.8 72-30.8 72-15.1.3-15.2.3V248h91v-23l-16.9-.2-16.9-.3 8.8-22 8.8-22h82.69999999999999l8.6 22 8.7 22-15.4.3-15.4.3V248h91v-22.9l-15.1-.3-15.1-.3-30.9-71.4c-17-39.3-30.9-71.9-30.9-72.3s6.3-.8 14-.8h14V57H400zm69 50.6c8.5 21.5 15.7 39.5 15.8 40 .2.5-13.3.9-32.8.9-18.8 0-33-.4-32.8-.9s7.3-18.5 15.8-40c10.7-26.9 16-39 17-39.1 1.1 0 6.1 11.7 17 39.1M583 88.5V120h25V80h58v145h-36v23h101v-23h-36V80h58v40h25V57H583zM799 68.5V80l17.8.2 17.7.3v144l-17.7.3-17.8.2v23h188v-61h-25v38h-99v-62h44v26h22v-73h-22v26h-44V80h99v38h25V57H799zM1019 68.5V80l17.8.2 17.7.3v144l-17.7.3-17.8.2v23h97v-23h-34v-63.7c0-53.8.2-63.5 1.4-62.3.7.8 30.9 35.2 67.1 76.3l65.7 74.8 6.7-.3 6.6-.3.3-84.8.2-84.7h35V57h-98v23h36v59.2c-.1 46.8-.3 59-1.3 57.7-.7-.9-28-32.7-60.7-70.7L1081.5 57H1019zM1280 68.5V80h36v145h-36v23h50.3c27.6 0 54.3-.5 59.2-1 39.9-4.5 69.3-22.9 84.2-52.5 7.4-14.7 10.5-34.3 8.4-53.4-1.4-12.9-3.8-21.6-9.2-32.2-14.2-28.4-44.8-46.8-84.3-50.8-6.3-.6-31.6-1.1-59.8-1.1H1280zm104.5 12.6c30.5 3.7 51.5 16.4 61.3 36.9 5.8 12.2 6.7 17.1 6.7 35 0 13.4-.3 16.5-2.3 23-3.6 11.4-7.9 18.8-15.7 26.5-16 16.1-39.4 23-75 22.3l-15-.3-.3-71c-.1-39.1 0-71.6.3-72.3.6-1.6 27.2-1.7 40-.1"/></svg>