<svg xmlns="http://www.w3.org/2000/svg" width="2666.667" height="2000" version="1.0" viewBox="0 0 2000 1500"><path d="M1431.5 659.7c-15.7 3.3-27.8 12.7-34.4 26.7-5.5 11.4-6.6 17-6.5 31.6.3 28.6 10.7 48.4 42.4 80.1 19.6 19.7 45 40.9 48.9 40.9 2.5 0 9-4.5 20.6-14.3 24-20.1 42.4-38.9 53.8-55l6.2-8.7h22.3c12.7 0 23.1-.4 24.2-1s5.1-9.2 10.6-23c4.8-12.1 9.1-21.7 9.5-21.3.4.5 7.3 17.3 15.4 37.6 9.5 23.8 15.4 37.1 16.5 37.7 2.9 1.6 7.5 1.2 9.3-.8.8-.9 3.9-7.8 6.9-15.2l5.4-13.5 20.8-.5c19.1-.5 20.9-.7 22.2-2.4 2.3-3.3 1.8-8.2-1.2-10.5-2.5-2-3.9-2.1-25.3-2.1-15.9 0-23.3.4-25 1.3-1.7.8-3.5 3.6-5.7 9.2-2.6 6.5-3.4 7.6-4 6-18-46-29.5-73.2-31.7-74.9-2.7-2-6.5-1.7-9 .8-.8.8-6.5 14.1-12.7 29.5l-11.2 28.1h-30.5l1.9-6.8c2.8-9.5 3.5-28.4 1.4-38.1-4.2-19.9-16.8-34.7-34-40-19.2-5.9-36.5-2.1-50.2 11.1l-6.1 5.8-6.1-5.8c-7-6.7-16.1-11.6-24.6-13.1-7.6-1.4-11.5-1.3-20.1.6m25.1 16.8c6.2 3 14.3 11.3 17.8 18.3 4.3 8.5 11.1 8.4 15.7-.1 6-11.1 13.1-17.3 23.5-20.3 5-1.4 7-1.5 13.2-.6 16.1 2.5 26.4 12.2 30.7 28.9 4.9 18.7-.9 41.7-15.5 61.3-7.7 10.4-32.5 35.3-48 48.2l-11.5 9.6-2.5-1.8c-6.5-4.6-26.7-22.7-37.5-33.5-25.3-25.3-35.6-43.6-37.1-66-1-13.9 2.9-27 10.7-35.9 9.5-10.7 27.7-14.4 40.5-8.1M279 679.5v8.5h27v109h-27v17h72v-17h-24.8l-.5-43.8c-.3-24-.8-45.3-1.2-47.2-.3-1.9 12.2 21.8 27.7 52.7l28.3 56.3h11.1l28.2-56.8c19.1-38.4 28-55.4 27.6-52.7-.3 2.2-.8 23.7-1.1 47.7l-.5 43.8H421v17h73v-17h-27V688h27v-17h-51l-9.9 20.2c-5.4 11.2-18.1 36.9-28.1 57.3l-18.2 37-28.7-57.3-28.6-57.2H279zM550 679.5v8.4l10.5.3 10.4.3-23.2 54.2-23.1 54.3H502v17h68v-17h-12.5c-6.9 0-12.5-.2-12.5-.5s3-7.9 6.6-17l6.6-16.5 31 .2 31 .3 5.9 15c3.2 8.2 6.2 15.8 6.5 16.7.5 1.6-.5 1.8-11 1.8H610v17h68v-16.9l-11.2-.3-11.2-.3-23.3-53.9c-12.8-29.6-23.3-54-23.3-54.2s4.7-.4 10.5-.4H630v-17h-80zm50.5 34.6c5.5 14 10.8 27.3 11.8 29.6l1.7 4.3h-24.5c-19.1 0-24.5-.3-24.5-1.3 0-.7 4.8-13.2 10.6-27.7 5.8-14.6 11-27.5 11.5-28.8s1.4-2.2 2.1-2c.6.2 5.7 11.9 11.3 25.9M687 694.5V718h19v-30h44l-.2 54.2-.3 54.3-13.7.3-13.8.3V814h76v-17h-27V688h44v30h18v-47H687zM849 679.5v8.5h27v109h-27v17h142v-46h-18.9l-.3 14.2-.3 14.3-37.2.3-37.3.2v-47h33v20.1l8.3-.3 8.2-.3.3-27.3.2-27.2h-17v19h-33v-46h75v29.1l9.3-.3 9.2-.3.3-22.8.2-22.7H849zM1014 679.5v8.5h27v109h-27v17h73v-17h-26v-48.2c0-28.2.4-47.8.9-47.3.5.6 23 26.2 50.1 57l49.2 56 5.4.3 5.4.3V688h26v-17h-72v16.9l13.3.3 13.2.3.3 43.7c.1 24.1-.1 43.8-.5 43.8-.5 0-21-23.6-45.8-52.5l-45-52.4-23.7-.1H1014zM1210 679.5v8.5h27v109h-27v17.2l42.8-.5c36-.3 43.9-.7 50.2-2.1 36.5-8.5 57.1-31.3 58.7-65.1 1.7-34.1-15.7-59.4-48.4-70.4-12.9-4.3-22.3-5.1-64-5.1H1210zm89 11c26.1 6.5 40.9 25 41 51 0 37.1-25.3 56.7-71.5 55.3l-10-.3-.3-54.4-.2-54.4 17.2.6c10.7.3 19.8 1.2 23.8 2.2"/></svg>